<?xml version="1.0" encoding="UTF-8" standalone="no" ?>
<!DOCTYPE svg PUBLIC "-//W3C//DTD SVG 1.1//EN" "http://www.w3.org/Graphics/SVG/1.1/DTD/svg11.dtd">
<svg xmlns="http://www.w3.org/2000/svg" xmlns:xlink="http://www.w3.org/1999/xlink" version="1.1" width="1280" height="1024" viewBox="0 0 1280 1024" xml:space="preserve">
<desc>Created with Fabric.js 5.3.0</desc>
<defs>
</defs>
<g transform="matrix(1 0 0 1 640 512)" id="background-logo"  >
<rect style="stroke: none; stroke-width: 0; stroke-dasharray: none; stroke-linecap: butt; stroke-dashoffset: 0; stroke-linejoin: miter; stroke-miterlimit: 4; fill: rgb(255,255,255); fill-rule: nonzero; opacity: 1;"  paint-order="stroke"  x="-640" y="-512" rx="0" ry="0" width="1280" height="1024" />
</g>
<g transform="matrix(1.9211538461538462 0 0 1.9211538461538462 641.7434695850205 781.7030198008817)" id="text-logo"  >
<g style=""  paint-order="stroke"   >
		<g transform="matrix(1 0 0 1 0 0)" id="text-logo-path-0"  >
<path style="stroke: rgb(255,255,255); stroke-width: 0; stroke-dasharray: none; stroke-linecap: butt; stroke-dashoffset: 0; stroke-linejoin: miter; stroke-miterlimit: 4; fill: rgb(28,28,28); fill-rule: nonzero; opacity: 1;"  paint-order="stroke"  transform=" translate(-263.10499999999996, 25.4)" d="M 21.17 -42.98 C 22.12 -42.98 22.59 -42.5 22.59 -41.55 L 22.59 -9.16 C 22.59 -8.27 22.12 -7.82 21.17 -7.82 L 12.72 -7.82 C 11.77 -7.77 11.3 -8.22 11.3 -9.16 L 11.3 -41.55 C 11.3 -42.5 11.77 -42.98 12.72 -42.98 Z M 8.45 -50.8 C 6.87 -50.8 5.54 -50.24 4.46 -49.14 C 3.38 -48.03 2.84 -46.69 2.84 -45.11 L 2.84 -5.61 C 2.84 -4.03 3.38 -2.7 4.46 -1.62 C 5.54 -0.54 6.87 0 8.45 0 L 25.36 0 C 26.94 0 28.28 -0.54 29.39 -1.62 C 30.49 -2.7 31.05 -4.03 31.05 -5.61 L 31.05 -45.11 C 31.05 -46.69 30.49 -48.03 29.39 -49.14 C 28.28 -50.24 26.94 -50.8 25.36 -50.8 Z M 71.73 -42.98 C 72.68 -42.98 73.15 -42.5 73.15 -41.55 L 73.15 -27.57 C 73.15 -26.62 72.68 -26.15 71.73 -26.15 L 61.86 -26.15 L 61.86 -42.98 Z M 53.4 -50.8 L 53.4 0 L 61.86 0 L 61.86 -18.33 L 75.92 -18.33 C 77.5 -18.33 78.84 -18.88 79.95 -19.99 C 81.05 -21.09 81.61 -22.44 81.61 -24.02 L 81.61 -45.11 C 81.61 -46.69 81.05 -48.03 79.95 -49.14 C 78.84 -50.24 77.5 -50.8 75.92 -50.8 Z M 103.96 -50.8 L 103.96 0 L 129.32 0 L 129.32 -7.82 L 112.42 -7.82 L 112.42 -21.49 L 126.48 -21.49 L 126.48 -29.31 L 112.42 -29.31 L 112.42 -42.98 L 127.9 -42.98 L 127.9 -50.8 Z M 170.01 -42.98 C 170.96 -42.98 171.43 -42.5 171.43 -41.55 L 171.43 -30.73 C 171.43 -29.78 170.96 -29.31 170.01 -29.31 L 160.13 -29.31 L 160.13 -42.98 Z M 151.68 -50.8 L 151.68 0 L 160.13 0 L 160.13 -21.49 L 161.71 -21.49 L 171.9 0 L 181.3 0 L 171.11 -21.49 L 174.19 -21.49 C 175.77 -21.49 177.12 -22.04 178.22 -23.15 C 179.33 -24.25 179.88 -25.6 179.88 -27.18 L 179.88 -45.11 C 179.88 -46.69 179.32 -48.03 178.18 -49.14 C 177.05 -50.24 175.72 -50.8 174.2 -50.8 Z M 205 -50.8 L 205 0 L 213.54 0 L 213.54 -50.8 Z M 237.24 -50.8 L 249.56 -25.36 L 237.24 0 L 246.72 0 L 254.22 -15.48 L 261.73 0 L 271.21 0 L 258.88 -25.36 L 271.21 -50.8 L 261.73 -50.8 L 254.22 -35.23 L 246.72 -50.8 Z M 328.64 -50.8 L 328.64 0 L 337.09 0 L 337.09 -21.49 L 349.81 -21.49 L 349.81 0 L 358.26 0 L 358.26 -50.8 L 349.81 -50.8 L 349.81 -29.31 L 337.09 -29.31 L 337.09 -50.8 Z M 398.95 -42.98 C 399.9 -42.98 400.37 -42.5 400.37 -41.55 L 400.37 -9.16 C 400.37 -8.27 399.9 -7.82 398.95 -7.82 L 390.5 -7.82 C 389.55 -7.77 389.07 -8.22 389.07 -9.16 L 389.07 -41.55 C 389.07 -42.5 389.55 -42.98 390.5 -42.98 Z M 386.23 -50.8 C 384.65 -50.8 383.32 -50.24 382.24 -49.14 C 381.16 -48.03 380.62 -46.69 380.62 -45.11 L 380.62 -5.61 C 380.62 -4.03 381.16 -2.7 382.24 -1.62 C 383.32 -0.54 384.65 0 386.23 0 L 403.14 0 C 404.72 0 406.06 -0.54 407.17 -1.62 C 408.27 -2.7 408.82 -4.03 408.82 -5.61 L 408.82 -45.11 C 408.82 -46.69 408.27 -48.03 407.17 -49.14 C 406.06 -50.24 404.72 -50.8 403.14 -50.8 Z M 431.18 -50.8 L 431.18 0 L 439.63 0 L 439.63 -36.26 L 448.4 0 L 458.28 0 L 467.13 -36.26 L 467.13 0 L 475.58 0 L 475.58 -50.8 L 462.62 -50.8 L 453.38 -12.96 L 453.3 -12.96 L 444.14 -50.8 Z M 498.02 -50.8 L 498.02 0 L 523.37 0 L 523.37 -7.82 L 506.47 -7.82 L 506.47 -21.49 L 520.53 -21.49 L 520.53 -29.31 L 506.47 -29.31 L 506.47 -42.98 L 521.95 -42.98 L 521.95 -50.8 Z" stroke-linecap="round" />
</g>
</g>
</g>
<g transform="matrix(2.0083752262474244 0 0 2.0083752262474244 640.7302631578949 401.73019234871407)" id="shape-dddc35d5-5c58-4a11-b447-e21edc122361"  >
<g style=""  paint-order="stroke"   >
		<g transform="matrix(1 0 0 1 0 0)" id="Path-1"  >
<path style="stroke: none; stroke-width: 1; stroke-dasharray: none; stroke-linecap: butt; stroke-dashoffset: 0; stroke-linejoin: miter; stroke-miterlimit: 4; fill: rgb(44,62,80); fill-rule: nonzero; opacity: 1;"  paint-order="stroke"  transform=" translate(-80.795, -125)" d="M 161.58 250 L 143.54000000000002 250 L 143.54000000000002 137.25 L 99.67000000000002 115.62 L 74.82000000000002 103.37 L 74.82000000000002 250 L 61.16 250 L 53.419999999999995 250 L 30.95 250 L 30.95 112.47 L 61.15 97.25999999999999 L 74.82 90.36999999999999 L 108.16 106.82 L 108.16 60.37 L 53.42 88.09 L 53.42 88.33 L 17.29 106.53 L 17.29 250 L 0 250 L 0 26.91 L 53.42 0 L 123.54 35.88 L 123.54 48.85 L 53.42 12.99 L 53.42 75.12 L 108.17 47.38000000000001 L 161.59 74.29 L 161.59 250 z M 132.7 250 L 132.7 148.3 L 99.67999999999998 131.66000000000003 L 88.82999999999998 126.20000000000003 L 88.82999999999998 250 L 99.67999999999998 250 L 108.16999999999997 250 L 132.7 250 z" stroke-linecap="round" />
</g>
</g>
</g>
<g transform="matrix(5.13656277105189 0 0 5.13656277105189 649.9259188055945 652.7770956296421)" id="shape-e81f1299-5766-47e5-8ba4-d2a13583430a"  >
<g style=""  paint-order="stroke"   >
		<g transform="matrix(1 0 0 1 0 2.796499999999998)" id="line-1"  >
<polygon style="stroke: none; stroke-width: 1; stroke-dasharray: none; stroke-linecap: butt; stroke-dashoffset: 0; stroke-linejoin: miter; stroke-miterlimit: 4; fill: rgb(52,58,64); fill-rule: nonzero; opacity: 1;"  paint-order="stroke"  points="-100,-4.564999999999998 -100,-1.0359999999999978 -81.28999999999999,-1.0359999999999978 -71.111,4.565000000000001 -33.44499999999999,4.565000000000001 -27.846000000000004,1.4840000000000018 -11.049999999999997,1.4840000000000018 11.855000000000004,1.4840000000000018 28.651999999999987,1.4840000000000018 34.251000000000005,4.565000000000001 71.916,4.565000000000001 82.096,-1.0359999999999978 100,-1.0359999999999978 100,-4.564999999999998 " />
</g>
		<g transform="matrix(1 0 0 1 72.805 8.9025)" id="line-1"  >
<polygon style="stroke: none; stroke-width: 1; stroke-dasharray: none; stroke-linecap: butt; stroke-dashoffset: 0; stroke-linejoin: miter; stroke-miterlimit: 4; fill: rgb(52,58,64); fill-rule: nonzero; opacity: 1;"  paint-order="stroke"  points="-0.48799999999999955,0.7929999999999993 -24.268,0.7929999999999993 -27.194999999999993,4.817 0.36599999999998545,4.817 10.609999999999985,-0.565999999999999 27.194999999999993,-0.565999999999999 27.194999999999993,-4.817 9.756,-4.817 " />
</g>
		<g transform="matrix(1 0 0 1 -61.662 -8.9025)" id="line-1"  >
<polygon style="stroke: none; stroke-width: 1; stroke-dasharray: none; stroke-linecap: butt; stroke-dashoffset: 0; stroke-linejoin: miter; stroke-miterlimit: 4; fill: rgb(52,58,64); fill-rule: nonzero; opacity: 1;"  paint-order="stroke"  points="10.61,-0.5659999999999998 27.195,-0.5659999999999998 27.195,-4.817 9.756,-4.817 -0.48799999999999955,0.7930000000000001 -24.268,0.7930000000000001 -27.195,4.817 0.36599999999999966,4.817 " />
</g>
		<g transform="matrix(1 0 0 1 24.51249999999999 -5.609999999999999)" id="line-1"  >
<rect style="stroke: none; stroke-width: 0; stroke-dasharray: none; stroke-linecap: butt; stroke-dashoffset: 0; stroke-linejoin: miter; stroke-miterlimit: 4; fill: rgb(52,58,64); fill-rule: nonzero; opacity: 1;"  paint-order="stroke"  x="-70.7315" y="-1.5245" rx="0" ry="0" width="141.463" height="3.049" />
</g>
</g>
</g>
</svg>